<svg width="24" height="24" viewBox="0 0 24 24" fill="none" xmlns="http://www.w3.org/2000/svg">
<path d="M9 18C9 19.1046 8.10457 20 7 20C5.89543 20 5 19.1046 5 18C5 16.8954 5.89543 16 7 16C8.10457 16 9 16.8954 9 18Z" stroke="#141B34" stroke-width="1.5"/>
<path d="M19 18C19 19.1046 18.1046 20 17 20C15.8954 20 15 19.1046 15 18C15 16.8954 15.8954 16 17 16C18.1046 16 19 16.8954 19 18Z" stroke="#141B34" stroke-width="1.5"/>
<path d="M2 11H18" stroke="#141B34" stroke-width="1.5" stroke-linecap="round"/>
<path d="M19 17.25C18.5858 17.25 18.25 17.5858 18.25 18C18.25 18.4142 18.5858 18.75 19 18.75V17.25ZM2 5.25C1.58579 5.25 1.25 5.58579 1.25 6C1.25 6.41421 1.58579 6.75 2 6.75V5.25ZM14.3235 6.33906L13.9771 7.0043L14.3235 6.33906ZM21.8342 13.3371L21.1339 13.6057V13.6057L21.8342 13.3371ZM21.7071 17.7071L22.2374 18.2374L22.2374 18.2374L21.7071 17.7071ZM17.818 10.6538L17.2914 11.1879L17.2914 11.1879L17.818 10.6538ZM4.53033 6.53033C4.82322 6.23744 4.82322 5.76256 4.53033 5.46967C4.23744 5.17678 3.76256 5.17678 3.46967 5.46967L4.53033 6.53033ZM2.14935 16.9077L2.78734 16.5134L2.78734 16.5134L2.14935 16.9077ZM4.82769 18.7299C5.23082 18.8251 5.63477 18.5754 5.72994 18.1723C5.8251 17.7692 5.57545 17.3652 5.17231 17.2701L4.82769 18.7299ZM9 17.25C8.58579 17.25 8.25 17.5858 8.25 18C8.25 18.4142 8.58579 18.75 9 18.75V17.25ZM15 18.75C15.4142 18.75 15.75 18.4142 15.75 18C15.75 17.5858 15.4142 17.25 15 17.25V18.75ZM19 18.75H20V17.25H19V18.75ZM22.75 16V15.2797H21.25V16H22.75ZM11.3761 5.25H2V6.75H11.3761V5.25ZM11.3761 6.75C12.1549 6.75 12.6892 6.75072 13.1114 6.78927C13.5185 6.82645 13.7677 6.89529 13.9771 7.0043L14.6698 5.67383C14.228 5.44377 13.7689 5.34308 13.2478 5.29549C12.7418 5.24928 12.1281 5.25 11.3761 5.25V6.75ZM22.75 15.2797C22.75 14.3347 22.762 13.6618 22.5344 13.0685L21.1339 13.6057C21.238 13.8771 21.25 14.211 21.25 15.2797H22.75ZM20 18.75C20.4502 18.75 20.8633 18.7516 21.1972 18.7067C21.5527 18.6589 21.9284 18.5465 22.2374 18.2374L21.1768 17.1768C21.1763 17.1772 21.1763 17.1772 21.1767 17.1769C21.177 17.1766 21.1772 17.1765 21.1772 17.1765C21.1771 17.1766 21.1762 17.1771 21.1743 17.1781C21.1724 17.1791 21.1691 17.1808 21.164 17.1828C21.1423 17.1918 21.0939 17.2071 20.9973 17.2201C20.7866 17.2484 20.4926 17.25 20 17.25V18.75ZM21.25 16C21.25 16.4926 21.2484 16.7866 21.2201 16.9973C21.2071 17.0939 21.1918 17.1423 21.1828 17.164C21.1808 17.1691 21.1791 17.1724 21.1781 17.1743C21.1771 17.1762 21.1766 17.1771 21.1765 17.1772C21.1765 17.1772 21.1766 17.177 21.1769 17.1767C21.1772 17.1763 21.1772 17.1763 21.1768 17.1768L22.2374 18.2374C22.5465 17.9284 22.6589 17.5527 22.7067 17.1972C22.7516 16.8633 22.75 16.4502 22.75 16H21.25ZM18.3446 10.1198C17.7898 9.57278 17.3953 8.82994 16.8443 7.94821C16.3311 7.12705 15.6856 6.2027 14.6698 5.67383L13.9771 7.0043C14.6024 7.32988 15.067 7.93466 15.5722 8.74314C16.0396 9.49106 16.5718 10.4784 17.2914 11.1879L18.3446 10.1198ZM22.5344 13.0685C22.0799 11.8837 21.1026 11.4021 20.2948 11.0808C19.8517 10.9046 19.5219 10.798 19.1556 10.6341C18.8165 10.4824 18.5499 10.3223 18.3446 10.1198L17.2914 11.1879C17.6761 11.5672 18.1229 11.8153 18.5429 12.0033C18.9358 12.1791 19.4108 12.3435 19.7406 12.4747C20.4786 12.7682 20.9194 13.0464 21.1339 13.6057L22.5344 13.0685ZM3.46967 5.46967C2.8467 6.09264 2.3012 7.22748 1.92275 8.23666C1.72629 8.76057 1.56122 9.2878 1.44427 9.7556C1.3311 10.2083 1.25 10.6555 1.25 11H2.75C2.75 10.8445 2.7939 10.5417 2.89948 10.1194C3.00128 9.7122 3.14871 9.23943 3.32725 8.76334C3.6988 7.77252 4.1533 6.90736 4.53033 6.53033L3.46967 5.46967ZM1.25 11V15.7639H2.75V11H1.25ZM1.25 15.7639C1.25 16.0492 1.24908 16.3199 1.27265 16.5479C1.298 16.7931 1.35627 17.051 1.51136 17.302L2.78734 16.5134C2.78716 16.5131 2.78705 16.5129 2.78667 16.5121C2.78625 16.5111 2.78478 16.5076 2.78266 16.5004C2.77813 16.485 2.77087 16.4534 2.76469 16.3936C2.75092 16.2604 2.75 16.08 2.75 15.7639H1.25ZM5.17231 17.2701C4.93808 17.2148 4.65687 17.1681 4.40672 17.1235C4.14247 17.0763 3.88651 17.0274 3.64689 16.9632C3.12577 16.8237 2.87792 16.66 2.78734 16.5134L1.51136 17.302C1.92749 17.9753 2.68921 18.2596 3.25886 18.4122C3.56463 18.4941 3.87435 18.5522 4.14337 18.6002C4.42651 18.6507 4.64616 18.6871 4.82769 18.7299L5.17231 17.2701ZM9 18.75L15 18.75V17.25L9 17.25V18.75Z" fill="#141B34"/>
<path d="M9 11V6" stroke="#141B34" stroke-width="1.5" stroke-linecap="round"/>
</svg>
